<svg width="12" height="12" viewBox="0 0 12 12" fill="none" xmlns="http://www.w3.org/2000/svg">
<g clip-path="url(#clip0_77_17)">
<path d="M0.585803 11.9998C0.4699 11.9999 0.356593 11.9655 0.260216 11.9011C0.163839 11.8367 0.0887213 11.7452 0.0443641 11.6381C6.85547e-06 11.5311 -0.0115968 11.4132 0.0110207 11.2996C0.0336383 11.1859 0.089461 11.0815 0.171428 10.9995L10.9996 0.171396C11.1095 0.0614965 11.2585 -0.000244141 11.4139 -0.000244141C11.5693 -0.000244141 11.7184 0.0614965 11.8283 0.171396C11.9382 0.281295 11.9999 0.43035 11.9999 0.585771C11.9999 0.741191 11.9382 0.890247 11.8283 1.00015L1.00018 11.8283C0.945811 11.8827 0.881218 11.926 0.810106 11.9554C0.738995 11.9848 0.662768 11.9999 0.585803 11.9998Z" fill="#343436"/>
<path d="M11.414 11.9998C11.337 11.9999 11.2608 11.9848 11.1897 11.9554C11.1185 11.926 11.0539 11.8827 10.9996 11.8283L0.171457 1.00015C0.0615576 0.890247 -0.000183105 0.741191 -0.000183105 0.585771C-0.000183105 0.43035 0.0615576 0.281295 0.171457 0.171396C0.281356 0.0614965 0.430411 -0.000244141 0.585832 -0.000244141C0.741252 -0.000244141 0.890308 0.0614965 1.00021 0.171396L11.8283 10.9995C11.9103 11.0815 11.9661 11.1859 11.9887 11.2996C12.0114 11.4132 11.9998 11.5311 11.9554 11.6381C11.911 11.7452 11.8359 11.8367 11.7395 11.9011C11.6432 11.9655 11.5299 11.9999 11.414 11.9998Z" fill="#343436"/>
</g>
<defs>
<clipPath id="clip0_77_17">
<rect width="12" height="12" fill="white"/>
</clipPath>
</defs>
</svg>
