<svg width="33" height="32" viewBox="0 0 33 32" fill="none" xmlns="http://www.w3.org/2000/svg">
<g id="submit icon">
<path id="Vector" d="M16.5 0C7.67731 0 0.5 7.17731 0.5 16C0.5 24.8227 7.67731 32 16.5 32C25.3227 32 32.5 24.8227 32.5 16C32.5 7.17731 25.3227 0 16.5 0ZM21.4427 16.9427L14.776 23.6093C14.6523 23.7333 14.5054 23.8316 14.3436 23.8987C14.1819 23.9657 14.0084 24.0002 13.8333 24C13.6582 24.0002 13.4848 23.9657 13.323 23.8987C13.1612 23.8316 13.0143 23.7333 12.8906 23.6093C12.3693 23.088 12.3693 22.2453 12.8906 21.724L18.6147 16L12.8907 10.276C12.3694 9.75469 12.3694 8.912 12.8907 8.39069C13.412 7.86938 14.2547 7.86938 14.776 8.39069L21.4427 15.0574C21.964 15.5787 21.964 16.4213 21.4427 16.9427Z" fill="#3047EC"/>
</g>
</svg>
