<svg height="30" overflow="visible" viewBox="0 0 30 30" width="30" xmlns="http://www.w3.org/2000/svg"><g><defs><path id="path-170021175351920" d="M0 15 C0 6.715728752538096 6.715728752538096 0 15 0 C23.284271247461902 0 30 6.715728752538096 30 15 C30 23.284271247461902 23.284271247461902 30 15 30 C6.715728752538096 30 0 23.284271247461902 0 15 Z" vector-effect="non-scaling-stroke"/></defs> <path d="M0 15 C0 6.715728752538098 6.715728752538098 0 15 0 C23.284271247461902 0 30 6.715728752538098 30 15 C30 23.284271247461902 23.284271247461902 30 15 30 C6.715728752538098 30 0 23.284271247461902 0 15 Z" style="stroke-width: 0; stroke-linecap: butt; stroke-linejoin: miter; fill: rgb(209, 0, 0);" vector-effect="non-scaling-stroke"/></g><g><defs><path id="path-170021175351718" d="M2.42424,4.92285c1.33886,0 2.42424,-1.10198 2.42424,-2.46143c0,-1.3594 -1.08538,-2.46143 -2.42424,-2.46143c-1.33891,0 -2.42424,1.10203 -2.42424,2.46143c0,1.35945 1.08533,2.46143 2.42424,2.46143zM13.57576,4.92285c1.33886,0 2.42424,-1.10198 2.42424,-2.46143c0,-1.3594 -1.08538,-2.46143 -2.42424,-2.46143c-1.33891,0 -2.42424,1.10203 -2.42424,2.46143c0,1.35945 1.08533,2.46143 2.42424,2.46143zM1.3231,12.12499c1.19127,-1.99179 3.59612,-3.76598 6.67685,-3.76598c3.08073,0 5.48558,1.7742 6.67782,3.76598c0.31903,0.53265 -0.10521,1.10961 -0.576,0.77683c-3.90836,-2.76812 -8.27103,-2.78437 -12.20267,0c-0.47079,0.33278 -0.89503,-0.24417 -0.576,-0.77683z" vector-effect="non-scaling-stroke"/></defs><path style="stroke-width: 0; stroke-linecap: butt; stroke-linejoin: miter; fill: white;" d="M2.42424,4.92285c1.33886,0 2.42424,-1.10198 2.42424,-2.46143c0,-1.3594 -1.08538,-2.46143 -2.42424,-2.46143c-1.33891,0 -2.42424,1.10203 -2.42424,2.46143c0,1.35945 1.08533,2.46143 2.42424,2.46143zM13.57576,4.92285c1.33886,0 2.42424,-1.10198 2.42424,-2.46143c0,-1.3594 -1.08538,-2.46143 -2.42424,-2.46143c-1.33891,0 -2.42424,1.10203 -2.42424,2.46143c0,1.35945 1.08533,2.46143 2.42424,2.46143zM1.3231,12.12499c1.19127,-1.99179 3.59612,-3.76598 6.67685,-3.76598c3.08073,0 5.48558,1.7742 6.67782,3.76598c0.31903,0.53265 -0.10521,1.10961 -0.576,0.77683c-3.90836,-2.76812 -8.27103,-2.78437 -12.20267,0c-0.47079,0.33278 -0.89503,-0.24417 -0.576,-0.77683z" transform="translate(7, 9) rotate(0)" vector-effect="non-scaling-stroke"/></g></svg>