<svg height="30" overflow="visible" viewBox="0 0 30 30" width="30" xmlns="http://www.w3.org/2000/svg"><g><defs><path id="path-170021175350616" d="M0 15 C0 6.715728752538096 6.715728752538096 0 15 0 C23.284271247461902 0 30 6.715728752538096 30 15 C30 23.284271247461902 23.284271247461902 30 15 30 C6.715728752538096 30 0 23.284271247461902 0 15 Z" vector-effect="non-scaling-stroke"/></defs> <path style="stroke-width: 0; stroke-linecap: butt; stroke-linejoin: miter; fill: rgb(255, 168, 0);" d="M0 15 C0 6.715728752538098 6.715728752538098 0 15 0 C23.284271247461902 0 30 6.715728752538098 30 15 C30 23.284271247461902 23.284271247461902 30 15 30 C6.715728752538098 30 0 23.284271247461902 0 15 Z" vector-effect="non-scaling-stroke"/></g><g><defs><path id="path-170021175348914" d="M9.323249999999907 15.417100000000021 C10.714899999999894 15.417100000000021 11.843049999999883 14.28895000000002 11.843049999999883 12.897300000000017 C11.843049999999883 11.505650000000015 10.714899999999894 10.377500000000014 9.323249999999907 10.377500000000014 C7.931599999999922 10.377500000000014 6.803449999999932 11.505650000000015 6.803449999999932 12.897300000000017 C6.803449999999932 14.28895000000002 7.931599999999922 15.417100000000021 9.323249999999907 15.417100000000021 Z" vector-effect="non-scaling-stroke"/></defs> <path style="stroke-width: 0; stroke-linecap: butt; stroke-linejoin: miter; fill: white;" d="M9.32325000000003 15.417100000000005 C10.714900000000057 15.417100000000005 11.843049999999948 14.28895 11.843049999999948 12.897300000000001 C11.843049999999948 11.505649999999974 10.714900000000057 10.377499999999998 9.32325000000003 10.377499999999998 C7.931600000000003 10.377499999999998 6.803449999999998 11.505649999999974 6.803449999999998 12.897300000000001 C6.803449999999998 14.28895 7.931600000000003 15.417100000000005 9.32325000000003 15.417100000000005 Z" vector-effect="non-scaling-stroke"/></g><g><defs><path id="path-170021175348612" d="M20.913299999999793 15.417100000000021 C22.30494999999978 15.417100000000021 23.43309999999977 14.28895000000002 23.43309999999977 12.897300000000017 C23.43309999999977 11.505650000000015 22.30494999999978 10.377500000000014 20.913299999999793 10.377500000000014 C19.52164999999981 10.377500000000014 18.39349999999982 11.505650000000015 18.39349999999982 12.897300000000017 C18.39349999999982 14.28895000000002 19.52164999999981 15.417100000000021 20.913299999999793 15.417100000000021 Z" vector-effect="non-scaling-stroke"/></defs> <path style="stroke-width: 0; stroke-linecap: butt; stroke-linejoin: miter; fill: white;" d="M20.91330000000005 15.417100000000005 C22.304949999999963 15.417100000000005 23.433099999999968 14.28895 23.433099999999968 12.897300000000001 C23.433099999999968 11.505649999999974 22.304949999999963 10.377499999999998 20.91330000000005 10.377499999999998 C19.521650000000022 10.377499999999998 18.393500000000017 11.505649999999974 18.393500000000017 12.897300000000001 C18.393500000000017 14.28895 19.521650000000022 15.417100000000005 20.91330000000005 15.417100000000005 Z" vector-effect="non-scaling-stroke"/></g><g><defs><path id="path-170021175348510" d="M18.581500000000144 21.1662 C18.581500000000144 21.1662 11.65505000000009 21.1662 11.65505000000009 21.1662 C10.897100000000085 21.1662 10.897100000000085 23.18205 11.65505000000009 23.18205 C11.65505000000009 23.18205 18.581500000000144 23.18205 18.581500000000144 23.18205 C19.33945000000015 23.18205 19.33945000000015 21.1662 18.581500000000144 21.1662 Z" vector-effect="non-scaling-stroke"/></defs> <path style="stroke-width: 0; stroke-linecap: butt; stroke-linejoin: miter; fill: white;" d="M18.581500000000005 21.166200000000003 C18.581500000000005 21.166200000000003 11.65504999999996 21.166200000000003 11.65504999999996 21.166200000000003 C10.897100000000023 21.166200000000003 10.897100000000023 23.182050000000004 11.65504999999996 23.182050000000004 C11.65504999999996 23.182050000000004 18.581500000000005 23.182050000000004 18.581500000000005 23.182050000000004 C19.339450000000056 23.182050000000004 19.339450000000056 21.166200000000003 18.581500000000005 21.166200000000003 Z" vector-effect="non-scaling-stroke"/></g></svg>