<svg width="22" height="25" fill="none" xmlns="http://www.w3.org/2000/svg"><g clip-path="url(#a)"><path d="m20.119.75.66.646a.053.053 0 0 0 .074 0l.493-.505a.559.559 0 0 0 .162-.352.42.42 0 0 0-.12-.329l-.096-.095a.397.397 0 0 0-.15-.092.449.449 0 0 0-.181-.021.527.527 0 0 0-.187.051.584.584 0 0 0-.162.117l-.495.506a.053.053 0 0 0 .002.074zm-.592 1.575a.049.049 0 0 0 0-.07l-.488-.487a.05.05 0 0 0-.07 0l-5.593 5.594a.049.049 0 0 0 0 .069l.487.488a.05.05 0 0 0 .07 0l5.594-5.594z" fill="#F0F6FC" fill-opacity=".6" stroke="#F0F6FC" stroke-opacity=".6" stroke-width=".364"/><path d="M13.149 8.395a.049.049 0 0 0 .027-.035.05.05 0 0 0-.013-.043l-.246-.26a.05.05 0 0 0-.078.009l-.313.542a.05.05 0 0 0 .065.069l.558-.282z" stroke="#F0F6FC" stroke-opacity=".6" stroke-width=".364"/><path d="m13.149 8.38-.558.282a.05.05 0 0 1-.065-.068l.313-.543a.05.05 0 0 1 .078-.008l.246.26a.05.05 0 0 1 .004.063.049.049 0 0 1-.018.015z" fill="#8D8D8D"/><path d="M6.313 9.67a.437.437 0 0 1-.438.437l-1.559-.002a.436.436 0 0 1-.436-.438l.003-1.55a.437.437 0 0 1 .438-.437l1.558.003a.437.437 0 0 1 .436.438l-.002 1.55zm-1.17-.194a.128.128 0 0 1-.13.066.124.124 0 0 1-.047-.018 1.956 1.956 0 0 1-.632-.632.11.11 0 0 1 .168-.142l.41.364a.07.07 0 0 0 .058.016.068.068 0 0 0 .048-.035l.494-.904a.067.067 0 0 0-.058-.098L4.32 8.092a.161.161 0 0 0-.114.046.158.158 0 0 0-.047.113v1.402a.106.106 0 0 0 .107.107H5.63a.197.197 0 0 0 .196-.195V8.414a.053.053 0 0 0-.098-.024l-.586 1.086z" fill="#ECECEC"/><path d="m5.143 9.476.586-1.086a.052.052 0 0 1 .098.024v1.151a.194.194 0 0 1-.196.195H4.266a.106.106 0 0 1-.107-.107V8.251c0-.042.017-.083.047-.113s.071-.046.114-.046l1.134.001a.067.067 0 0 1 .058.098l-.494.904a.067.067 0 0 1-.048.035.07.07 0 0 1-.059-.016l-.41-.364a.11.11 0 0 0-.167.142c.16.258.37.468.631.632a.124.124 0 0 0 .145-.009.128.128 0 0 0 .033-.04z" fill="#F0F6FC" fill-opacity=".6"/><path d="M6.313 12.763a.438.438 0 0 1-.438.436l-1.559-.003a.436.436 0 0 1-.436-.438l.003-1.55a.438.438 0 0 1 .438-.436l1.558.003a.436.436 0 0 1 .436.438l-.002 1.55zm-1.17-.195a.129.129 0 0 1-.079.062.125.125 0 0 1-.098-.014 1.955 1.955 0 0 1-.632-.632.11.11 0 0 1 .168-.142l.41.364a.07.07 0 0 0 .086.004.067.067 0 0 0 .02-.023l.494-.904a.067.067 0 0 0-.058-.098l-1.134-.002a.161.161 0 0 0-.114.047.158.158 0 0 0-.047.112v1.403a.107.107 0 0 0 .107.106H5.63a.194.194 0 0 0 .196-.194v-1.151a.052.052 0 0 0-.098-.024l-.586 1.086z" fill="#ECECEC"/><path d="m5.143 12.568.586-1.086a.053.053 0 0 1 .098.024v1.15a.19.19 0 0 1-.057.138.196.196 0 0 1-.139.057H4.266a.106.106 0 0 1-.107-.106v-1.402a.16.16 0 0 1 .16-.159l1.135.001a.067.067 0 0 1 .058.098l-.494.904a.066.066 0 0 1-.048.035.069.069 0 0 1-.059-.016l-.41-.364a.11.11 0 0 0-.146-.002.11.11 0 0 0-.021.144c.16.258.37.468.631.632a.124.124 0 0 0 .145-.009.127.127 0 0 0 .033-.04z" fill="#F0F6FC" fill-opacity=".6"/><path d="M6.313 15.854a.438.438 0 0 1-.438.437l-1.559-.003a.436.436 0 0 1-.436-.438l.003-1.55a.437.437 0 0 1 .438-.436l1.558.002a.436.436 0 0 1 .436.438l-.002 1.55zm-1.17-.195a.129.129 0 0 1-.079.063.125.125 0 0 1-.098-.014 1.955 1.955 0 0 1-.632-.632.11.11 0 0 1 .168-.142l.41.363a.07.07 0 0 0 .086.005.067.067 0 0 0 .02-.023l.494-.904a.067.067 0 0 0-.058-.098l-1.134-.002a.161.161 0 0 0-.114.047.158.158 0 0 0-.047.112v1.403a.107.107 0 0 0 .107.106H5.63a.194.194 0 0 0 .196-.194v-1.151a.052.052 0 0 0-.098-.025l-.586 1.086z" fill="#ECECEC"/><path d="m5.143 15.66.586-1.087a.053.053 0 0 1 .098.025v1.15c0 .052-.02.102-.057.138a.196.196 0 0 1-.139.057H4.266a.106.106 0 0 1-.107-.106v-1.403a.16.16 0 0 1 .16-.159l1.135.002a.067.067 0 0 1 .058.098l-.494.904a.066.066 0 0 1-.048.035.07.07 0 0 1-.059-.017l-.41-.363a.11.11 0 0 0-.146-.002.11.11 0 0 0-.021.144c.16.257.37.468.631.632a.124.124 0 0 0 .145-.01.127.127 0 0 0 .033-.039zm.497 1.451-1.45-.01a.193.193 0 0 0-.19.197l-.01 1.508a.192.192 0 0 0 .186.2l1.45.01a.193.193 0 0 0 .19-.197l.011-1.509a.193.193 0 0 0-.187-.199z" fill="#F0F6FC" fill-opacity=".6"/><path d="M6.312 18.932a.446.446 0 0 1-.445.447l-1.538.003a.445.445 0 0 1-.446-.445l-.003-1.532a.446.446 0 0 1 .445-.447l1.538-.002a.447.447 0 0 1 .446.445l.003 1.531zm-.483-1.52a.172.172 0 0 0-.17-.173l-1.324-.01a.172.172 0 0 0-.174.171l-.009 1.31a.172.172 0 0 0 .171.173l1.324.01a.172.172 0 0 0 .173-.172l.01-1.31z" fill="#ECECEC"/><path d="M12.921 18.26c-.86-.221-2.103-.445-2.297-1.489-.496-2.682 2.446-2.82 4.131-2.081a.075.075 0 0 1 .048.074v1.03a.095.095 0 0 1-.058.088.092.092 0 0 1-.1-.019c-.625-.597-1.383-.83-2.275-.698-.405.06-.778.504-.792.932-.063 1.831 3.662.45 3.453 3.23-.17 2.257-2.992 2.156-4.505 1.36a.07.07 0 0 1-.041-.066l-.008-.989a.115.115 0 0 1 .13-.113.114.114 0 0 1 .06.027c.707.61 1.743 1.033 2.685.702.714-.251.953-1.207.352-1.684-.13-.102-.392-.204-.783-.304z" fill="#F0F6FC" fill-opacity=".6"/><mask id="b" maskUnits="userSpaceOnUse" x="0" y="1.88" width="19" height="23" fill="#000"><path fill="#fff" d="M0 1.88h19v23H0z"/><path d="M18.278 9.56c.003 3.585.003 7.171 0 10.76 0 .89-.05 1.488-.149 1.795-.335 1.037-1.195 1.772-2.343 1.867-3.9.026-7.852.024-11.856-.005-1.817-.013-2.914-1.28-2.92-3.08-.02-4.942-.01-9.884.03-14.825.01-1.221.651-2.063 1.764-2.443.298-.102.808-.153 1.532-.154l2.593-.003c.318 0 .647-.584 1.058-.587a261.04 261.04 0 0 1 2.935-.002c.531.002.86.122 1.164.52.03.04.07.06.12.06l4.22.016c.078 0 .088.026.033.079l-1.054.984a.178.178 0 0 1-.127.05h-2.917a.123.123 0 0 0-.112.07c-.249.543-.661.832-1.237.869-.719.045-1.607.041-2.666-.01-.677-.035-1.093-.265-1.354-.856a.099.099 0 0 0-.093-.063 49.745 49.745 0 0 0-2.755.003c-1.2.035-2.047.322-2.047 1.639v14.204c0 .704.068 1.195.203 1.475.374.772 1.03.992 1.91.99 3.71-.004 7.42-.004 11.13 0 1.407.003 1.771-.81 1.772-2.053.007-4.771.008-9.553.003-14.346a.296.296 0 0 1 .093-.216l.982-.92c-.01.002.008-.008 0 0a.058.058 0 0 1 .059.024c.006.01.01.02.01.032l.019 4.127z"/></mask><path d="M18.278 9.56c.003 3.585.003 7.171 0 10.76 0 .89-.05 1.488-.149 1.795-.335 1.037-1.195 1.772-2.343 1.867-3.9.026-7.852.024-11.856-.005-1.817-.013-2.914-1.28-2.92-3.08-.02-4.942-.01-9.884.03-14.825.01-1.221.651-2.063 1.764-2.443.298-.102.808-.153 1.532-.154l2.593-.003c.318 0 .647-.584 1.058-.587a261.04 261.04 0 0 1 2.935-.002c.531.002.86.122 1.164.52.03.04.07.06.12.06l4.22.016c.078 0 .088.026.033.079l-1.054.984a.178.178 0 0 1-.127.05h-2.917a.123.123 0 0 0-.112.07c-.249.543-.661.832-1.237.869-.719.045-1.607.041-2.666-.01-.677-.035-1.093-.265-1.354-.856a.099.099 0 0 0-.093-.063 49.745 49.745 0 0 0-2.755.003c-1.2.035-2.047.322-2.047 1.639v14.204c0 .704.068 1.195.203 1.475.374.772 1.03.992 1.91.99 3.71-.004 7.42-.004 11.13 0 1.407.003 1.771-.81 1.772-2.053.007-4.771.008-9.553.003-14.346a.296.296 0 0 1 .093-.216l.982-.92c-.01.002.008-.008 0 0a.058.058 0 0 1 .059.024c.006.01.01.02.01.032l.019 4.127z" fill="#F0F6FC" fill-opacity=".6"/><path d="M18.278 9.56h.713v-.003l-.713.004zm0 10.76h.713-.713zm-.149 1.795.678.22v-.002l-.678-.218zm-2.343 1.867.005.713h.027l.027-.003-.059-.71zM3.93 23.977l-.006.712.006-.712zm-2.92-3.08.712-.003-.712.003zm.03-14.825-.712-.007.712.007zm1.764-2.443-.23-.675.23.675zm1.532-.154v-.713.713zm2.593-.003v-.713.713zm1.058-.587-.004-.712.004.712zm2.935-.002.003-.713-.003.713zm1.164.52.566-.432-.566.433zm.12.06.004-.713h-.003v.713zm4.22.016-.002.712h.003V3.48zm.033.079.486.52.002-.002-.488-.518zm-1.054.984-.487-.521-.002.001.489.52zm-3.044.05-.001.712h.001v-.712zm-.112.07-.645-.3-.002.003.647.298zm-1.237.869.044.711h.002l-.046-.711zm-2.666-.01-.036.711h.001l.035-.712zm-1.354-.856-.653.287.001.002.652-.289zm-.093-.063.028-.712h-.01l-.018.712zm-2.755.003-.02-.713h-.002l.022.713zM2.3 21.923l.642-.31-.642.31zm1.91.99v-.712h-.001l.001.713zm11.13 0v-.712.713zm1.772-2.053H16.4h.712zm.003-14.346h-.712.712zm.093-.216-.487-.52-.003.003.49.517zm1.05-.864-.712-.004v.007l.712-.003zm-.692 4.127c.002 3.584.002 7.17 0 10.758l1.425.001c.002-3.588.002-7.175 0-10.76l-1.425.001zm0 10.758c-.001.903-.056 1.393-.115 1.579l1.357.435c.137-.428.182-1.135.183-2.013l-1.425-.001zm-.115 1.577c-.25.776-.875 1.306-1.724 1.376l.118 1.42c1.448-.12 2.543-1.06 2.962-2.358l-1.356-.438zm-1.67 1.373c-3.897.026-7.846.024-11.846-.005l-.01 1.425c4.007.03 7.962.031 11.866.006l-.01-1.425zm-11.846-.005c-.736-.005-1.268-.259-1.62-.64-.36-.389-.59-.972-.593-1.73L.297 20.9c.004 1.042.325 1.992.97 2.69.652.705 1.576 1.091 2.657 1.1l.01-1.426zm-2.213-2.37c-.02-4.94-.01-9.878.03-14.817L.329 6.066C.288 11.01.278 15.955.297 20.9l1.425-.006zm.03-14.816c.005-.484.132-.85.332-1.122.2-.275.509-.502.95-.653l-.46-1.349c-.671.23-1.24.613-1.64 1.16-.401.548-.6 1.214-.606 1.951l1.425.013zm1.282-1.775c.176-.06.582-.115 1.303-.116l-.002-1.425c-.727.001-1.342.049-1.762.192l.461 1.349zm1.303-.116 2.593-.002-.002-1.426-2.593.003.002 1.425zm2.592-.002c.292 0 .517-.131.638-.212.124-.083.247-.19.316-.249.088-.074.136-.11.172-.132.032-.02.005.005-.063.006l-.01-1.425c-.273.001-.496.1-.65.191-.152.09-.283.199-.368.271-.105.088-.15.127-.19.153-.042.03.022-.029.155-.029v1.426zm1.063-.587a272.22 272.22 0 0 1 2.926-.003l.007-1.425c-.98-.004-1.962-.003-2.942.003l.009 1.425zm2.926-.003c.219.001.327.027.39.054a.528.528 0 0 1 .212.187l1.132-.865a1.939 1.939 0 0 0-.782-.631c-.31-.133-.632-.168-.945-.17l-.007 1.425zm.602.24c.167.22.419.34.687.34V2.75a.56.56 0 0 1 .445.221l-1.132.865zm.684.34 4.22.016.005-1.425-4.22-.016-.005 1.425zm4.223.016c-.01 0-.074 0-.16-.025a.685.685 0 0 1-.435-.4.686.686 0 0 1 .037-.597c.046-.079.094-.123.1-.13l.978 1.037a.867.867 0 0 0 .16-.199.74.74 0 0 0 .046-.646.74.74 0 0 0-.476-.43.87.87 0 0 0-.25-.035v1.425zm-.455-1.154-1.054.984.973 1.041 1.054-.984-.973-1.041zm-1.056.985a.53.53 0 0 1 .362-.143v1.425a.89.89 0 0 0 .615-.243l-.977-1.039zm.362-.143h-2.917v1.425h2.917V3.88zm-2.915 0a.836.836 0 0 0-.45.13l.764 1.203a.59.59 0 0 1-.317.092l.003-1.425zm-.45.13a.836.836 0 0 0-.31.352l1.292.603a.59.59 0 0 1-.218.248l-.765-1.202zm-.311.356a.802.802 0 0 1-.258.338.713.713 0 0 1-.377.117l.09 1.422c.4-.026.777-.142 1.106-.373.327-.23.566-.544.734-.909l-1.295-.595zm-.634.455c-.683.042-1.544.04-2.587-.011l-.07 1.423c1.074.053 1.991.057 2.745.01l-.088-1.422zm-2.586-.011c-.27-.014-.413-.064-.496-.115-.073-.045-.157-.124-.243-.317l-1.303.577c.176.397.431.728.8.955.36.22.764.303 1.17.323l.072-1.423zm-.738-.43a.817.817 0 0 0-.717-.489L6.87 5.314a.607.607 0 0 1-.53-.362l1.304-.573zm-.726-.49a50.466 50.466 0 0 0-2.795.003l.041 1.425a49.034 49.034 0 0 1 2.716-.003l.038-1.424zm-2.796.003c-.616.019-1.306.099-1.846.459-.61.406-.892 1.063-.892 1.893H2.81c0-.487.143-.632.256-.707.183-.122.518-.203 1.1-.22l-.043-1.425zM1.384 6.244v14.204H2.81V6.245H1.384zm0 14.204c0 .709.062 1.347.275 1.786l1.282-.622c-.058-.12-.132-.465-.132-1.164H1.384zm.275 1.785c.253.524.625.895 1.102 1.12.456.215.96.274 1.45.273l-.002-1.425c-.39 0-.654-.05-.84-.137-.164-.077-.307-.202-.427-.451l-1.283.62zm2.552 1.393c3.71-.004 7.418-.004 11.128 0l.001-1.425c-3.71-.004-7.42-.004-11.13 0v1.425zm11.127 0c.844.002 1.54-.248 1.987-.846.409-.55.5-1.26.5-1.92H16.4c0 .583-.093.9-.218 1.068-.088.119-.278.274-.841.273l-.003 1.425zm2.487-2.765c.006-4.772.007-9.554.003-14.348l-1.425.001c.004 4.793.003 9.575-.003 14.345l1.425.002zm.003-14.348a.415.415 0 0 1-.034.165l-1.309-.564a1.009 1.009 0 0 0-.082.4h1.425zm-.034.165a.414.414 0 0 1-.096.137l-.98-1.034a1.01 1.01 0 0 0-.233.333l1.309.564zm-.099.14.982-.92-.974-1.04-.982.92.974 1.04zm.99-.927a.717.717 0 0 0 .082-.937.713.713 0 0 0-1.114-.049.71.71 0 0 0-.14.706.713.713 0 0 0 .807.467l-.26-1.4a.698.698 0 0 1 .338.02.711.711 0 1 1-.481 1.334.712.712 0 0 1-.221-1.167l.989 1.026zm-.365.187a.655.655 0 0 1-.373-.04l.552-1.314a.77.77 0 0 0-.439-.047l.26 1.401zm-.373-.04a.656.656 0 0 1-.292-.241l1.187-.79a.77.77 0 0 0-.343-.283l-.552 1.314zm-.292-.241a.656.656 0 0 1-.11-.367l1.426.007a.768.768 0 0 0-.13-.43l-1.186.79zm-.11-.36.02 4.127 1.426-.007-.02-4.127-1.425.007z" fill="#8D8D8D" fill-opacity=".6" mask="url(#b)"/></g><defs><clipPath id="a"><path fill="#fff" d="M0 0h22v25H0z"/></clipPath></defs></svg>